<svg class="animated" id="freepik_stories-ozone-layer-depletion" xmlns="http://www.w3.org/2000/svg" viewBox="0 0 500 500" version="1.1" xmlns:xlink="http://www.w3.org/1999/xlink" xmlns:svgjs="http://svgjs.com/svgjs"><style>svg#freepik_stories-ozone-layer-depletion:not(.animated) .animable {opacity: 0;}svg#freepik_stories-ozone-layer-depletion.animated #freepik--background-simple--inject-122 {animation: 1s 1 forwards cubic-bezier(.36,-0.01,.5,1.38) fadeIn;animation-delay: 0s;}svg#freepik_stories-ozone-layer-depletion.animated #freepik--Stars--inject-122 {animation: 1s 1 forwards cubic-bezier(.36,-0.01,.5,1.38) lightSpeedLeft;animation-delay: 0s;}svg#freepik_stories-ozone-layer-depletion.animated #freepik--ozone-layer--inject-122 {animation: 1s 1 forwards cubic-bezier(.36,-0.01,.5,1.38) slideLeft;animation-delay: 0s;}svg#freepik_stories-ozone-layer-depletion.animated #freepik--Earth--inject-122 {animation: 1s 1 forwards cubic-bezier(.36,-0.01,.5,1.38) zoomIn,3s Infinite  linear spin;animation-delay: 0s,3.5s;}svg#freepik_stories-ozone-layer-depletion.animated #freepik--Arrows--inject-122 {animation: 1s 1 forwards cubic-bezier(.36,-0.01,.5,1.38) fadeIn;animation-delay: 0s;}svg#freepik_stories-ozone-layer-depletion.animated #freepik--Sun--inject-122 {animation: 1s 1 forwards cubic-bezier(.36,-0.01,.5,1.38) zoomOut;animation-delay: 0s;}            @keyframes fadeIn {                0% {                    opacity: 0;                }                100% {                    opacity: 1;                }            }                    @keyframes lightSpeedLeft {              from {                transform: translate3d(-50%, 0, 0) skewX(20deg);                opacity: 0;              }              60% {                transform: skewX(-10deg);                opacity: 1;              }              80% {                transform: skewX(2deg);              }              to {                opacity: 1;                transform: translate3d(0, 0, 0);              }            }                    @keyframes slideLeft {                0% {                    opacity: 0;                    transform: translateX(-30px);                }                100% {                    opacity: 1;                    transform: translateX(0);                }            }                    @keyframes zoomIn {                0% {                    opacity: 0;                    transform: scale(0.5);                }                100% {                    opacity: 1;                    transform: scale(1);                }            }                 @keyframes spin {             from {                 transform: rotate(0);               }               to {                 transform: rotate(360deg);               }         }                 @keyframes zoomOut {                0% {                    opacity: 0;                    transform: scale(1.5);                }                100% {                    opacity: 1;                    transform: scale(1);                }            }        </style><g id="freepik--background-simple--inject-122" class="animable" style="transform-origin: 246.386px 255.686px;"><path d="M356.05,46.42c-29.64-6.82-61.67-7.47-91.22-5.87-72.68,3.94-160.11,15.72-205.71,79.79C25.83,167.11,19.81,231.51,32.38,286.26c8.4,36.57,29.11,70.66,52.62,99.46,32.6,39.93,77,74.84,129.08,83.39,39.36,6.47,79.22.29,113.21-21.09,36.45-22.92,62.44-58.55,83.88-95.16,37.31-63.71,74.77-153.22,43.83-226.37C436.8,83.48,400.8,56.72,356.05,46.42Z" style="fill: #00FF88; transform-origin: 246.386px 255.686px;" id="elcf7pttjtvv5" class="animable"></path><g id="elay8lpwxqz3j"><path d="M356.05,46.42c-29.64-6.82-61.67-7.47-91.22-5.87-72.68,3.94-160.11,15.72-205.71,79.79C25.83,167.11,19.81,231.51,32.38,286.26c8.4,36.57,29.11,70.66,52.62,99.46,32.6,39.93,77,74.84,129.08,83.39,39.36,6.47,79.22.29,113.21-21.09,36.45-22.92,62.44-58.55,83.88-95.16,37.31-63.71,74.77-153.22,43.83-226.37C436.8,83.48,400.8,56.72,356.05,46.42Z" style="fill: rgb(255, 255, 255); opacity: 0.8; transform-origin: 246.386px 255.686px;" class="animable" id="el62dt2gmpe5f"></path></g></g><g id="freepik--Stars--inject-122" class="animable" style="transform-origin: 244.786px 264.804px;"><path d="M387.32,439.2h0a.49.49,0,0,1-.44-.28l-3.58-7.32-8.05-1.21a.5.5,0,0,1-.4-.34.49.49,0,0,1,.13-.51l5.85-5.66-1.34-8a.5.5,0,0,1,.73-.52l7.19,3.82,7.22-3.76a.5.5,0,0,1,.73.53l-1.41,8,5.8,5.71a.51.51,0,0,1,.13.51.51.51,0,0,1-.41.34l-8.06,1.13-3.64,7.29A.5.5,0,0,1,387.32,439.2Zm-10.92-9.65,7.31,1.1a.51.51,0,0,1,.38.27l3.24,6.65,3.3-6.62a.49.49,0,0,1,.38-.27l7.32-1-5.27-5.18a.5.5,0,0,1-.14-.45l1.28-7.28-6.56,3.41a.49.49,0,0,1-.47,0l-6.52-3.47,1.21,7.29a.5.5,0,0,1-.14.45Z" style="fill: rgb(38, 50, 56); transform-origin: 387.364px 427.25px;" id="el1p935k3ci8q" class="animable"></path><path d="M353.52,74.89a.47.47,0,0,1-.45-.28l-3.57-7.32-8.05-1.2a.5.5,0,0,1-.4-.35.5.5,0,0,1,.12-.51L347,59.57l-1.34-8a.5.5,0,0,1,.2-.48.49.49,0,0,1,.53,0l7.19,3.82,7.22-3.76a.51.51,0,0,1,.53,0,.5.5,0,0,1,.19.49l-1.41,8L366,65.34a.51.51,0,0,1,.12.51.48.48,0,0,1-.4.34l-8.07,1.14L354,74.61A.51.51,0,0,1,353.52,74.89ZM342.6,65.25l7.31,1.09a.51.51,0,0,1,.37.28l3.25,6.64,3.3-6.61a.47.47,0,0,1,.37-.27l7.32-1-5.27-5.18a.51.51,0,0,1-.14-.44l1.28-7.28-6.55,3.41a.52.52,0,0,1-.47,0l-6.53-3.47,1.22,7.29a.49.49,0,0,1-.15.44Z" style="fill: rgb(38, 50, 56); transform-origin: 353.584px 62.9514px;" id="elolmq50hymec" class="animable"></path><path d="M202.78,480.8h0a.51.51,0,0,1-.45-.28l-2.42-5-5.47-.81a.48.48,0,0,1-.4-.35.5.5,0,0,1,.12-.51l4-3.84-.91-5.46a.5.5,0,0,1,.73-.52l4.88,2.6,4.91-2.56a.51.51,0,0,1,.53,0,.5.5,0,0,1,.19.49l-1,5.45,4,3.88a.5.5,0,0,1,.12.51.51.51,0,0,1-.4.34l-5.48.77-2.47,4.95A.5.5,0,0,1,202.78,480.8Zm-7.19-6.91,4.73.71a.47.47,0,0,1,.37.27l2.1,4.3,2.13-4.28a.5.5,0,0,1,.38-.27L210,474l-3.4-3.35a.49.49,0,0,1-.15-.44l.83-4.71-4.24,2.2a.47.47,0,0,1-.46,0l-4.23-2.24.79,4.71a.53.53,0,0,1-.14.45Z" style="fill: rgb(38, 50, 56); transform-origin: 202.825px 472.385px;" id="elx6cuhd5pbrd" class="animable"></path><path d="M91.57,329.93a.54.54,0,0,1-.22-.05.5.5,0,0,1-.28-.45L91,323.9l-4.59-3.08a.5.5,0,0,1,.12-.89l5.24-1.77,1.51-5.32a.48.48,0,0,1,.39-.35.5.5,0,0,1,.49.19l3.3,4.43,5.53-.2a.5.5,0,0,1,.43.79l-3.2,4.51,1.9,5.19a.5.5,0,0,1-.1.52.49.49,0,0,1-.51.13l-5.28-1.64-4.35,3.41A.51.51,0,0,1,91.57,329.93Zm-3.76-9.38,4,2.67a.5.5,0,0,1,.22.41l.06,4.78,3.76-3a.52.52,0,0,1,.45-.09l4.57,1.43-1.65-4.49a.5.5,0,0,1,.06-.46L102,318l-4.78.17a.52.52,0,0,1-.42-.2L94,314.09l-1.3,4.6a.5.5,0,0,1-.32.33Z" style="fill: rgb(38, 50, 56); transform-origin: 94.8505px 321.206px;" id="elvraxxfgvagb" class="animable"></path><path d="M453.11,198.6a.5.5,0,0,1-.21,0,.49.49,0,0,1-.29-.45l-.06-5.53-4.6-3.08a.49.49,0,0,1-.21-.48.49.49,0,0,1,.33-.41l5.24-1.77,1.52-5.32a.48.48,0,0,1,.39-.35.5.5,0,0,1,.49.19l3.3,4.44,5.53-.21a.47.47,0,0,1,.46.26.51.51,0,0,1,0,.53l-3.2,4.51,1.91,5.19a.52.52,0,0,1-.11.52.48.48,0,0,1-.51.13l-5.28-1.64-4.35,3.41A.51.51,0,0,1,453.11,198.6Zm-3.76-9.37,4,2.66a.48.48,0,0,1,.22.41l.06,4.78,3.76-3a.51.51,0,0,1,.46-.09l4.56,1.43L460.74,191a.47.47,0,0,1,.06-.46l2.76-3.9-4.78.17a.45.45,0,0,1-.42-.2l-2.85-3.83-1.31,4.6a.5.5,0,0,1-.32.34Z" style="fill: rgb(38, 50, 56); transform-origin: 456.404px 189.906px;" id="elbjht0buc41j" class="animable"></path><path d="M113.93,161.37a.59.59,0,0,1-.22-.05.5.5,0,0,1-.28-.45l-.06-5.53-4.6-3.08a.47.47,0,0,1-.21-.48.49.49,0,0,1,.33-.41l5.24-1.77,1.51-5.32a.51.51,0,0,1,.89-.16l3.3,4.44,5.53-.21a.46.46,0,0,1,.45.26.51.51,0,0,1,0,.53l-3.2,4.51,1.91,5.19a.52.52,0,0,1-.11.52.49.49,0,0,1-.51.13l-5.28-1.64-4.35,3.41A.51.51,0,0,1,113.93,161.37ZM110.17,152l4,2.66a.48.48,0,0,1,.22.41l.06,4.78,3.76-2.95a.48.48,0,0,1,.46-.09l4.56,1.43-1.65-4.49a.5.5,0,0,1,.07-.46l2.76-3.9-4.78.17a.48.48,0,0,1-.42-.2l-2.85-3.83-1.31,4.6a.46.46,0,0,1-.32.33Z" style="fill: rgb(38, 50, 56); transform-origin: 117.218px 152.646px;" id="el4q4tsy9apqx" class="animable"></path><path d="M93.84,437.08a.54.54,0,0,1-.22-.05.51.51,0,0,1-.28-.45l-.07-5.53L88.68,428a.5.5,0,0,1,.12-.89L94,425.31,95.55,420a.51.51,0,0,1,.39-.36.49.49,0,0,1,.49.2l3.31,4.43,5.52-.2a.5.5,0,0,1,.43.79l-3.2,4.51,1.9,5.19a.5.5,0,0,1-.1.52.49.49,0,0,1-.51.13l-5.28-1.65L94.15,437A.51.51,0,0,1,93.84,437.08Zm-3.76-9.38,4,2.67a.5.5,0,0,1,.22.41l.06,4.78,3.76-3a.48.48,0,0,1,.45-.08l4.57,1.42-1.65-4.48a.52.52,0,0,1,.06-.47l2.77-3.9-4.78.18a.5.5,0,0,1-.42-.2l-2.86-3.83-1.3,4.6a.52.52,0,0,1-.32.33Z" style="fill: rgb(38, 50, 56); transform-origin: 97.1205px 428.356px;" id="eltsf2pkgjjbi" class="animable"></path><path d="M29.88,241.79a.54.54,0,0,1-.22,0,.5.5,0,0,1-.28-.45l-.07-5.53-4.59-3.08a.5.5,0,0,1,.12-.89L30.08,230l1.51-5.32a.5.5,0,0,1,.88-.16l3.3,4.43,5.53-.2a.49.49,0,0,1,.46.26.51.51,0,0,1,0,.53l-3.2,4.51,1.9,5.19a.5.5,0,0,1-.1.52.5.5,0,0,1-.52.13l-5.28-1.65-4.35,3.42A.5.5,0,0,1,29.88,241.79Zm-3.76-9.38,4,2.67a.5.5,0,0,1,.22.41l.05,4.78,3.76-3a.48.48,0,0,1,.46-.09l4.56,1.42-1.64-4.48a.5.5,0,0,1,.06-.46l2.77-3.9-4.78.17a.48.48,0,0,1-.42-.2L32.27,226l-1.3,4.6a.5.5,0,0,1-.32.33Z" style="fill: rgb(38, 50, 56); transform-origin: 33.1661px 233.061px;" id="eluc6j3ohbvu" class="animable"></path><path d="M445.42,330.06a.54.54,0,0,1-.22-.05.49.49,0,0,1-.28-.44l0-3.44L442,324.22a.5.5,0,0,1-.21-.48.49.49,0,0,1,.33-.41l3.26-1.1.94-3.31a.48.48,0,0,1,.39-.35.52.52,0,0,1,.49.19l2,2.76,3.43-.13a.5.5,0,0,1,.43.79l-2,2.8,1.18,3.23a.48.48,0,0,1-.1.51.51.51,0,0,1-.51.14l-3.28-1L445.72,330A.48.48,0,0,1,445.42,330.06Zm-2-6.11,2.23,1.5a.48.48,0,0,1,.22.41l0,2.68,2.12-1.66a.49.49,0,0,1,.45-.08l2.57.8-.93-2.52a.53.53,0,0,1,.06-.46l1.56-2.19-2.69.1a.56.56,0,0,1-.42-.2l-1.6-2.16-.73,2.58a.52.52,0,0,1-.32.34Z" style="fill: rgb(38, 50, 56); transform-origin: 447.469px 324.314px;" id="elx4ct35pqnk" class="animable"></path><path d="M301.54,474.13a.54.54,0,0,1-.22-.05.5.5,0,0,1-.28-.45l0-3.43-2.85-1.91a.51.51,0,0,1-.22-.49.49.49,0,0,1,.33-.4l3.26-1.1.94-3.31a.48.48,0,0,1,.39-.35.5.5,0,0,1,.49.19l2.05,2.76,3.43-.13a.5.5,0,0,1,.43.79l-2,2.8,1.18,3.22a.5.5,0,0,1-.1.52.49.49,0,0,1-.51.13l-3.28-1-2.7,2.12A.51.51,0,0,1,301.54,474.13Zm-2-6.11,2.23,1.5a.47.47,0,0,1,.22.4l0,2.69,2.11-1.66a.49.49,0,0,1,.45-.08l2.57.8-.93-2.52a.5.5,0,0,1,.07-.46l1.55-2.19-2.69.1a.52.52,0,0,1-.41-.21l-1.61-2.15-.73,2.58a.52.52,0,0,1-.32.34Z" style="fill: rgb(38, 50, 56); transform-origin: 303.674px 468.382px;" id="elofj5cm6xaus" class="animable"></path><path d="M69.06,412.64a.54.54,0,0,1-.21-.05.53.53,0,0,1-.29-.45l0-3.43-2.85-1.92a.5.5,0,0,1,.12-.88l3.26-1.1L70,401.5a.51.51,0,0,1,.39-.35.53.53,0,0,1,.5.19l2,2.75,3.43-.12a.49.49,0,0,1,.46.26.51.51,0,0,1,0,.53l-2,2.8L76,410.78a.48.48,0,0,1-.11.52.49.49,0,0,1-.51.13l-3.28-1-2.7,2.12A.51.51,0,0,1,69.06,412.64Zm-2-6.11L69.3,408a.47.47,0,0,1,.22.4l0,2.69,2.11-1.66a.51.51,0,0,1,.46-.08l2.56.8-.92-2.52a.52.52,0,0,1,.06-.47L75.37,405l-2.68.1a.49.49,0,0,1-.42-.2l-1.6-2.15-.73,2.58a.51.51,0,0,1-.33.34Z" style="fill: rgb(38, 50, 56); transform-origin: 71.176px 406.892px;" id="eljdx3xj6gjpj" class="animable"></path><path d="M79.31,172.2a.54.54,0,0,1-.21,0,.53.53,0,0,1-.29-.45l0-3.43-2.85-1.92a.49.49,0,0,1,.12-.88l3.25-1.1.94-3.31a.5.5,0,0,1,.39-.35.49.49,0,0,1,.49.19l2.06,2.75,3.43-.12a.48.48,0,0,1,.46.26.51.51,0,0,1,0,.53l-2,2.8,1.18,3.22a.5.5,0,0,1-.11.52.49.49,0,0,1-.51.13l-3.28-1-2.7,2.12A.51.51,0,0,1,79.31,172.2Zm-2-6.11,2.23,1.49a.5.5,0,0,1,.22.41l0,2.69L81.91,169a.5.5,0,0,1,.46-.08l2.56.8L84,167.22a.52.52,0,0,1,.06-.47l1.55-2.19-2.68.1a.5.5,0,0,1-.42-.2l-1.6-2.15-.74,2.58a.48.48,0,0,1-.32.34Z" style="fill: rgb(38, 50, 56); transform-origin: 81.4547px 166.484px;" id="ellwywlxc8cfd" class="animable"></path><path d="M410,420.8a.44.44,0,0,1-.22-.05.49.49,0,0,1-.28-.44l0-3.44L406.58,415a.51.51,0,0,1-.22-.48.48.48,0,0,1,.34-.41L410,413l.94-3.3a.51.51,0,0,1,.39-.36.5.5,0,0,1,.49.2l2.05,2.75,3.43-.13a.53.53,0,0,1,.46.26.51.51,0,0,1,0,.53l-2,2.8,1.19,3.23a.5.5,0,0,1-.11.51.51.51,0,0,1-.51.14l-3.28-1-2.7,2.12A.5.5,0,0,1,410,420.8Zm-2-6.11,2.22,1.5a.51.51,0,0,1,.23.41l0,2.68,2.11-1.65a.54.54,0,0,1,.46-.09l2.56.8-.92-2.52a.48.48,0,0,1,.06-.46l1.55-2.19-2.68.1a.49.49,0,0,1-.42-.2l-1.61-2.15-.73,2.58a.5.5,0,0,1-.32.33Z" style="fill: rgb(38, 50, 56); transform-origin: 412.095px 415.072px;" id="el4q1azjaszn2" class="animable"></path><path d="M311,60.31a.42.42,0,0,1-.22-.05.49.49,0,0,1-.28-.44l0-3.44-2.86-1.91a.47.47,0,0,1-.21-.48.49.49,0,0,1,.33-.41l3.26-1.1.94-3.3a.49.49,0,0,1,.88-.16l2.05,2.75,3.43-.13a.5.5,0,0,1,.46.27.49.49,0,0,1,0,.52l-2,2.8,1.18,3.23a.5.5,0,0,1-.1.52.52.52,0,0,1-.52.13l-3.27-1-2.71,2.12A.47.47,0,0,1,311,60.31Zm-2-6.1,2.23,1.49a.49.49,0,0,1,.22.41l0,2.68,2.11-1.65a.51.51,0,0,1,.46-.09l2.57.8-.93-2.52a.51.51,0,0,1,.06-.46l1.55-2.19-2.68.1a.5.5,0,0,1-.42-.2l-1.6-2.15L311.87,53a.54.54,0,0,1-.32.34Z" style="fill: rgb(38, 50, 56); transform-origin: 313.139px 54.5625px;" id="elg965bgoc0v" class="animable"></path><path d="M371,220.59a.44.44,0,0,1-.22-.05.49.49,0,0,1-.28-.44l0-3.43-2.85-1.92a.48.48,0,0,1-.22-.48.49.49,0,0,1,.33-.41l3.26-1.1.94-3.3a.49.49,0,0,1,.88-.16l2,2.75,3.43-.13a.5.5,0,0,1,.46.27.49.49,0,0,1,0,.52l-2,2.8,1.19,3.23a.52.52,0,0,1-.11.52.51.51,0,0,1-.51.13l-3.28-1-2.7,2.12A.5.5,0,0,1,371,220.59Zm-2-6.1,2.23,1.49a.49.49,0,0,1,.22.41l0,2.69,2.11-1.66a.51.51,0,0,1,.46-.09l2.56.8-.93-2.52a.51.51,0,0,1,.07-.46L377.3,213l-2.69.1a.5.5,0,0,1-.42-.2l-1.6-2.15-.73,2.58a.54.54,0,0,1-.32.34Z" style="fill: rgb(38, 50, 56); transform-origin: 373.115px 214.84px;" id="ellx8ymiew4i7" class="animable"></path><path d="M317.25,122.18a.54.54,0,0,1-.22-.05.51.51,0,0,1-.28-.45l0-3.43-2.86-1.92a.49.49,0,0,1-.21-.48.49.49,0,0,1,.33-.41l3.26-1.1.93-3.3a.51.51,0,0,1,.4-.35.5.5,0,0,1,.49.19l2.05,2.75,3.43-.12a.47.47,0,0,1,.46.26.49.49,0,0,1,0,.52l-2,2.81,1.18,3.22a.5.5,0,0,1-.62.65l-3.27-1-2.71,2.12A.48.48,0,0,1,317.25,122.18Zm-2-6.11,2.23,1.49a.49.49,0,0,1,.22.41l0,2.69,2.11-1.66a.51.51,0,0,1,.46-.09l2.57.8-.93-2.52a.51.51,0,0,1,.06-.46l1.55-2.19-2.68.1a.48.48,0,0,1-.42-.2l-1.6-2.15-.73,2.58a.54.54,0,0,1-.32.34Z" style="fill: rgb(38, 50, 56); transform-origin: 319.39px 116.434px;" id="elr6tm06a8gvf" class="animable"></path><path d="M102.89,97.43a.38.38,0,0,1-.21-.05.48.48,0,0,1-.29-.44l0-3.44L99.5,91.59a.5.5,0,0,1,.12-.89l3.25-1.1.94-3.3a.49.49,0,0,1,.88-.16l2,2.75,3.44-.13a.5.5,0,0,1,.42.79l-2,2.8,1.18,3.23a.52.52,0,0,1-.11.52.53.53,0,0,1-.51.13l-3.28-1-2.7,2.13A.5.5,0,0,1,102.89,97.43Zm-2-6.11,2.23,1.5a.5.5,0,0,1,.22.41l0,2.68,2.11-1.65a.48.48,0,0,1,.46-.09l2.56.8-.92-2.52a.48.48,0,0,1,.06-.46l1.55-2.19-2.68.1a.49.49,0,0,1-.42-.2l-1.6-2.15-.74,2.58a.46.46,0,0,1-.32.33Z" style="fill: rgb(38, 50, 56); transform-origin: 104.96px 91.6788px;" id="elbkfzc232167" class="animable"></path><path d="M427,193.53a.44.44,0,0,1-.22-.05.49.49,0,0,1-.28-.44l0-3.44-2.85-1.91a.5.5,0,0,1,.12-.89l3.25-1.1.94-3.3a.49.49,0,0,1,.88-.16l2.05,2.75,3.44-.13a.49.49,0,0,1,.45.26.51.51,0,0,1,0,.53l-2,2.8,1.18,3.23a.52.52,0,0,1-.11.52.53.53,0,0,1-.51.13l-3.28-1-2.7,2.12A.5.5,0,0,1,427,193.53Zm-2-6.11,2.23,1.5a.52.52,0,0,1,.22.41l0,2.68,2.11-1.65a.48.48,0,0,1,.46-.09l2.56.8-.92-2.52a.48.48,0,0,1,.06-.46l1.55-2.19-2.68.1a.49.49,0,0,1-.42-.2l-1.6-2.15-.74,2.58a.46.46,0,0,1-.32.33Z" style="fill: rgb(38, 50, 56); transform-origin: 429.141px 187.782px;" id="elhrh3xa695pg" class="animable"></path></g><g id="freepik--ozone-layer--inject-122" class="animable" style="transform-origin: 248.847px 315.467px;"><g id="ellv0xymixwy"><path d="M369.57,237.47A143.06,143.06,0,0,0,268.86,172.8l-6.31,3.09,1.7,2.34,2.11,5.89-.11,6.16-2.14-2.06-.22-3.38-2.19-3.57-5.11-.42-4.34,7.4-15.71,6.52-13-2.7-23.65-2.26-6.57-1.53-3.51,2,3.31,6.53-4.17,2.75-5.4,7.71L184,201l2.25-4.11-.18-4.54-9.86-1.14c-1.55.91-3.1,1.85-4.63,2.83a143.35,143.35,0,1,0,198,43.46Z" style="fill: rgb(38, 50, 56); opacity: 0.3; transform-origin: 248.847px 315.467px;" class="animable" id="el1docyvntm7q"></path></g></g><g id="freepik--Earth--inject-122" class="animable" style="transform-origin: 249.44px 314.66px;"><g id="elprwneudyw2"><circle cx="249.44" cy="314.66" r="117.55" style="fill: #00FF88; transform-origin: 249.44px 314.66px; transform: rotate(-45deg);" class="animable" id="elbn70fpubvs9"></circle></g><path d="M266.3,209a5.79,5.79,0,0,0-1.22-5.08c-2-2.64-3.46-2.64-5.89-3.05a58.63,58.63,0,0,0-7.32-1c-3.25-.21-6.09-.21-8.73-.21s-4.06.21-5.48-.2-1.22-1.22-3.46-1.22c-.4,0-.76,0-1.12,0a118.76,118.76,0,0,0-16.63,3.59A117.54,117.54,0,0,0,134,292.47a196.11,196.11,0,0,0,4.64,19.64c1,3.65,1.94,6.34,2.29,6.57,1.07.72-1.16-8.69-1.77-11.74s-1.42-5.89-.61-4.87,4.88,10.15,5.08,14-1.63,5.08.81,7.93,8.53,9.14,9.55,8.32.61-3.65,2-2,1.42,4.47,4.06,5.08,3.66.61,4.67,1.83,3.05,5.08,5.08,6.09a8.75,8.75,0,0,0,5.28,1.22c1.83-.2,2.64-1.42,3.66-.41s.2,3.05,1,4.68,2.84,2.43,2.84,3.86-5.49,7.71-2.24,14.62,12.4,13.61,12.4,13.61l9.54,4.27,4.27,7.71,1.42,6.71s5.08,13.61,9.34,17.47,10,8.73,13.21,9.95,6.29,1.42,3.86-.41-3.46-3-4.47-3.86-.61-2.23-1.83-3-2.44-.21-1.83-1.83,1-1.42,2-2.44a8.51,8.51,0,0,0,1.63-2.64s-1-2.64-.82-3.66,1.22.82,2.64-1.21a40.85,40.85,0,0,0,2.85-5.08l1-2.24,1-3.45,4.27-1,4.26-1.82,2.84-3.66,1-3.86v-7.11l.81-1.42s6.1-2.84,6.71-6.7-.41-5.69-.41-5.69l-4.27-1.22L245,362.8l-4.88-1-3.65-1.22-3.86-1.42-1.83-1.63v-3l-2.64-3.25-2-1L222.83,349l-3.05-.41-2.64-1.22-3.25-3.25L210,341.68l-4.87-1.63-1.83.21-3.46.2L195.81,339a6.64,6.64,0,0,0-2-1.43,9.06,9.06,0,0,0-1.83-.2l-2.23,3s.2-3.25-1.63-2.85-5.48,2.85-5.48,2.85l-.41,3.05s-2.84-2.65-3.65-2.65-1.83,2.44-4.27,1.22a6.27,6.27,0,0,1-3.45-4.26c-.21-1,.4-4.27,0-5.69s-2.64-1.42-2.64-1.42a10.55,10.55,0,0,1-2-.2c-.82-.21-2.24-.61-2.24-.61s1.42-6.91.21-8.53-2.65-1.43-3-.21a6.86,6.86,0,0,1-2.44,3.46c-1.22.81-2.23,1.82-3.45,1.21a11.25,11.25,0,0,1-4.88-9.14c0-5.07,3.25-11,3.25-11s3.66-3,6.3-2.84,2.84.81,3.86-.2,3.25-.81,4.06-.41,3.05,1.63,3.25,3.05.41,4.87,1.83,6.3,2.23-2,2.23-2-2-3.86-2-5.68-.2-2.64.21-3.25,9.95-5.49,10.76-8.13a15.91,15.91,0,0,0,.81-5.69c0-1.82,5.69-4.46,7.11-5.07s.21-3.66,3.25-5.69,12.8-5.28,10.36-4.27-2.84,2.85,1.63,1,10.56-2,6.09-3.86-9.34-1.42-9.14-2.84,2.84-4.27,6.7-4.68c3.65-.38,5.66-2,5.53-.68a1.7,1.7,0,0,1,0,.28c-.41,1.83-2.85,4.26-1.42,4.87s9.14,1.83,9.54,0-4.87-2-3.86-5.08,2.85-4.46,1.83-5.89-4.26-2.43-4.26-2.43-4.68-4.27-4.88-5.08-1.22-4.47-1.83-5.28-1.22,1.22-3.86.81-1.82-2.64-2.64-3.86-4.06-3.25-6.9-2.23-3.05,1.62-4.27,4.06.61,3.45-.41,5.08-3.65,2.84-4.26,4.47.2,3.25-1,4.87-4.67,2.23-4.67-.61.61-4.06-.81-4.67-3.25-.41-5.08-2.44-1.62-6.09-1.62-6.09,6.29-5.28,8.12-6.1,4.47.61,5.89.41,3.45-.81,3.25-2.64-1.42-2.84,1.22-4.67a15.27,15.27,0,0,0,4.67-6.3c.41-1,3.46-3.65,6.1-.61s1.82,5.89,1.82,5.89-6.5.41-5.89,2.24,4.47,1.62,4.88,3.25-.81,3.25,3.25,3,5.89-.81,4.87-2.84-2-5.08-.81-4.47,2.24,2.64,4.88,1,1.21-5.28-.61-6.71a11.5,11.5,0,0,1-4.27-5.48c-.81-2.44-2-3-4.26-3.25s-5.29-.61-7.32.41-2.84,1.21-3.25,2a4.49,4.49,0,0,1-1.83,2c-.6.2-2.84,1-2.84,1l-2.84-1.62a3.93,3.93,0,0,1-2.44,1.22c-1.63.2-1.83-2.64-1.83-2.64L197,211.48s3.86-.21,5.28.4,5.49,1,7.31.21,1.63-.21,3-1.43a35.44,35.44,0,0,1,4.27-2.84s1.83-1.42,3.86-2.84a14.62,14.62,0,0,1,6.7-2.44c2.64-.41,3.86,0,1.83.61s-4.27,1.62-5.28,2.84-3.05,2-.82,2.44,4.68,0,7.11,2,3.25,2,1.83,4.88-3.25,6.7-1.83,8.12.82-.41.61,4.06.21,6.3,1.83,9.35,4.47,2.43,5.48,3.45a3.42,3.42,0,0,0,3.86.81c1.43-.61,3.25-5.69,3.25-5.69l5.29-6.5,7.92-3.25s4.67-1.62,7.72-3,4.87-2.44,3.25-5.69A80.18,80.18,0,0,1,266.3,209Z" style="fill: rgb(255, 255, 255); transform-origin: 202.037px 313.095px;" id="el16152fbt3kt" class="animable"></path><path d="M362.27,281.66A117,117,0,0,0,325.44,225a38.71,38.71,0,0,1-5.32-1.71c-5.07-2-10.56-3.46-9.75,1s2.24,6.91.61,8.53a6.23,6.23,0,0,0,.82,8.74c3.25,2.84,5.89,5.08,6.5,3.25s3-.61,4.06,1.42-.21,4.67,1.83,4.06,5.07-2.64,2-6.09-5.08-5.89-4.88-8.53,2-6.71,2.44-2.85,1.83,5.69,4.06,8.53,4.67,4.68,3.86,7.52a5.86,5.86,0,0,1-4.87,4.27,29.53,29.53,0,0,1-5.29-1c-1.82-.41-2.64,0-3.24.81a17.29,17.29,0,0,0-2.24,5.08c-.41,1.83-1.22,4.47-3.86,5.08s-6.7,1.22-4.47,3.05,5.28-.41,5.69,4.46-1.62,5.69-5.69,5.29-5.48,1-4.67,4.87,1.83,6.5,3.25,7.31,5.69.82,3.66,3.86-5.89,4.27-6.91,7.11-2.64,6.1-3.86,7.11-7.51,10.16-7.72,16.25,1.83,16.66,7.72,22.34,9.55,10.57,14.22,8.13,8.73-4.06,10.36-1.63,2,2.44,3.05,3,1.21,3.45.4,6.7,1,7.72,1.42,10.77-7.92,7.72-9.75,13-2.43,9.95-4.06,13-5.89,6.09-3.86,7.72,8.53-.81,12.19-3.66,10.77-11.58,12.39-13.2,6.7-5.69,10.36-11a82.79,82.79,0,0,0,6.7-12.39,87.29,87.29,0,0,0,8.72-14.53A117,117,0,0,0,362.27,281.66Z" style="fill: rgb(255, 255, 255); transform-origin: 329.221px 313.669px;" id="elgbgf25k3axr" class="animable"></path><path d="M303.87,259.62c.82,1.21,3.66,2,5.89,1.21s4.47-2,3.86-3.65-3.45-2.24-3.45-2.24-4.27-1.62-5.28-4.87-3.25-7.72-5.49-5.28,1.43,4.67,1.43,5.48-3.25-.4-4.07,2-.2,4.88,1.43,5.08,3.45.41,4.06-1.22-.2-3.65,1-2.84,2.64.61,2,2.23S303.06,258.4,303.87,259.62Z" style="fill: rgb(255, 255, 255); transform-origin: 305.06px 252.619px;" id="elm3559br9htb" class="animable"></path><path d="M249.28,433.77a119.22,119.22,0,1,1,33.58-4.84A119.81,119.81,0,0,1,249.28,433.77Zm.11-235.18a116.06,116.06,0,1,0,111.44,83.49A115.61,115.61,0,0,0,249.39,198.59Z" style="fill: rgb(38, 50, 56); transform-origin: 249.235px 314.55px;" id="elg2muq7vx7cr" class="animable"></path></g><g id="freepik--Arrows--inject-122" class="animable" style="transform-origin: 195.52px 171.295px;"><polygon points="173.24 127.48 168.25 127.08 162.8 194.62 129.25 185.07 131.44 177.41 111.13 182.52 125.7 197.55 127.89 189.88 167.29 201.1 173.24 127.48" style="fill: #00FF88; transform-origin: 142.185px 164.09px;" id="elxzkd57rv2to" class="animable"></polygon><path d="M167.74,201.74,128.23,190.5l-2.28,8-15.78-16.28,22-5.53-2.28,8L162.35,194l5.44-67.43,6,.49Zm-40.2-12.47,39.3,11.18,5.86-72.51-4-.32-5.46,67.65-34.61-9.85,2.08-7.32-18.63,4.69,13.37,13.79Z" style="fill: rgb(38, 50, 56); transform-origin: 141.98px 164.155px;" id="elxfzkl88c6" class="animable"></path><polygon points="162.25 121.15 157.32 120.27 140.25 215.46 118.85 210.73 120.58 202.94 100.61 209.25 116.05 223.39 117.78 215.61 144.25 221.46 162.25 121.15" style="fill: #00FF88; transform-origin: 131.43px 171.83px;" id="elsx7uji86yp" class="animable"></polygon><path d="M116.36,224.35,99.63,209l21.62-6.83-1.8,8.14,20.4,4.51,17.07-95.17,5.91,1.06L144.65,222.06l-26.49-5.85Zm-14.78-14.88,14.17,13,1.64-7.43,26.46,5.85,17.82-99.31-3.94-.7-17.08,95.21-22.39-4.95,1.64-7.43Z" style="fill: rgb(38, 50, 56); transform-origin: 131.23px 172px;" id="el166upa2v73o" class="animable"></path><polygon points="243.29 204.94 203.25 120.08 198.73 122.21 238.77 207.07 231.56 210.47 248.77 222.41 250.5 201.54 243.29 204.94" style="fill: #00FF88; transform-origin: 224.615px 171.245px;" id="elh9a7p3wy23p" class="animable"></polygon><path d="M249.2,223.31l-18.64-12.92,7.54-3.56-40-84.85,5.43-2.56,40,84.85,7.54-3.55Zm-16.64-12.75,15.78,10.94,1.59-19.14-6.88,3.24-40-84.85-3.62,1.7,40.05,84.86Z" style="fill: rgb(38, 50, 56); transform-origin: 224.585px 171.365px;" id="el0q59b8e7viyb" class="animable"></path><polygon points="212.56 216.87 193.35 125.02 188.46 126.04 207.66 217.89 199.86 219.52 213.82 235.13 220.36 215.23 212.56 216.87" style="fill: #00FF88; transform-origin: 204.41px 180.075px;" id="elew462mwlgbb" class="animable"></polygon><path d="M214,236.1l-15.11-16.89,8.16-1.71-19.2-91.84,5.87-1.23,19.2,91.84,8.16-1.7Zm-13.21-16.27,12.8,14.32,6-18.25-7.44,1.56L193,125.61l-3.92.82,19.2,91.84Z" style="fill: rgb(38, 50, 56); transform-origin: 204.465px 180.265px;" id="elq0yiqvh4z9" class="animable"></path><polygon points="290.85 135.61 272 144.73 278.59 149.21 267.36 165.74 215.57 107.22 211.83 110.53 267.88 173.87 282.73 152.02 289.32 156.5 290.85 135.61" style="fill: #00FF88; transform-origin: 251.34px 140.545px;" id="el77gdmp7zsdh" class="animable"></polygon><path d="M267.93,174.68l-56.81-64.19,4.5-4,.33.38,51.36,58,10.59-15.58-6.9-4.69,20.41-9.86-1.65,22.61-6.9-4.69Zm-55.39-64.11,55.29,62.49,14.76-21.74,6.29,4.28,1.41-19.16L273,144.8l6.29,4.27-11.88,17.48-51.88-58.63Z" style="fill: rgb(38, 50, 56); transform-origin: 251.265px 140.585px;" id="ellcj80eb5d4q" class="animable"></path></g><g id="freepik--Sun--inject-122" class="animable" style="transform-origin: 179.245px 86.355px;"><polygon points="223.89 86.36 227.81 83.53 223.59 81.17 227.16 77.91 222.7 76.06 225.86 72.4 221.21 71.08 223.92 67.09 219.15 66.32 221.38 62.03 216.55 61.83 218.27 57.31 213.45 57.66 214.63 52.98 209.88 53.89 210.52 49.09 205.91 50.55 205.98 45.72 201.57 47.69 201.09 42.88 196.93 45.36 195.89 40.64 192.06 43.58 190.47 39.02 187.01 42.39 184.9 38.04 181.85 41.79 179.25 37.72 176.65 41.79 173.6 38.04 171.49 42.39 168.03 39.02 166.44 43.58 162.6 40.64 161.56 45.36 157.41 42.88 156.92 47.69 152.51 45.72 152.59 50.55 147.98 49.1 148.61 53.89 143.87 52.98 145.05 57.67 140.23 57.31 141.94 61.83 137.12 62.03 139.34 66.32 134.57 67.09 137.28 71.09 132.64 72.41 135.8 76.06 131.34 77.91 134.9 81.17 130.69 83.53 134.6 86.36 130.69 89.19 134.9 91.55 131.34 94.81 135.8 96.66 132.64 100.32 137.29 101.64 134.57 105.63 139.34 106.4 137.12 110.69 141.94 110.89 140.23 115.41 145.05 115.06 143.87 119.74 148.61 118.83 147.98 123.63 152.59 122.17 152.52 127.01 156.93 125.03 157.41 129.84 161.56 127.36 162.61 132.08 166.44 129.14 168.03 133.7 171.49 130.33 173.6 134.68 176.65 130.93 179.25 135 181.85 130.93 184.9 134.68 187.01 130.33 190.47 133.7 192.06 129.14 195.89 132.08 196.94 127.36 201.09 129.84 201.57 125.03 205.98 127 205.91 122.17 210.52 123.62 209.89 118.83 214.63 119.74 213.45 115.06 218.27 115.41 216.55 110.89 221.38 110.69 219.15 106.4 223.93 105.63 221.21 101.63 225.86 100.31 222.7 96.66 227.16 94.81 223.59 91.55 227.81 89.19 223.89 86.36" style="fill: #00FF88; transform-origin: 179.25px 86.36px;" id="elh14he7gj2ep" class="animable"></polygon><path d="M179.25,135.93l-2.65-4.15-3.11,3.82-2.15-4.43-3.53,3.44L166.19,130l-3.9,3-1.07-4.81L157,130.67l-.49-4.9-4.5,2,.08-4.92-4.7,1.48.65-4.88-4.84.92,1.2-4.77-4.91.36,1.75-4.6-4.92-.21,2.27-4.38-4.86-.78,2.76-4.07-4.73-1.35L135,96.86,130.42,95l3.63-3.32-4.29-2.41,4-2.88-4-2.88,4.29-2.41-3.63-3.32L135,75.86l-3.23-3.72,4.74-1.34-2.76-4.08,4.86-.78-2.27-4.37,4.92-.21-1.75-4.6,4.91.36-1.2-4.78,4.83.93-.64-4.88,4.7,1.47L152,44.94l4.5,2,.49-4.9,4.23,2.52,1.07-4.81,3.9,3,1.62-4.65,3.53,3.44,2.15-4.43,3.11,3.82,2.65-4.15,2.65,4.15,3.1-3.82,2.15,4.43,3.53-3.44,1.62,4.65,3.91-3,1.06,4.81,4.23-2.52L202,47l4.49-2-.07,4.92,4.69-1.48-.64,4.88,4.84-.92-1.21,4.77,4.91-.36-1.74,4.61,4.92.21-2.27,4.37,4.86.78L222,70.79l4.74,1.35-3.22,3.72,4.55,1.89-3.64,3.32,4.3,2.41-4,2.88,4,2.88-4.3,2.41L228.08,95l-4.55,1.89,3.22,3.72L222,101.93l2.77,4.07-4.86.78,2.27,4.37-4.92.21L219,116l-4.92-.37,1.21,4.78-4.84-.93.65,4.88-4.7-1.47.08,4.92-4.5-2-.49,4.9-4.24-2.52L196.21,133l-3.91-3-1.62,4.65-3.53-3.44L185,135.6l-3.1-3.82Zm-2.55-5.85,2.55,4,2.55-4,3,3.68,2.07-4.27,3.4,3.31,1.55-4.48,3.76,2.89,1-4.63,4.07,2.43.48-4.72,4.32,1.94-.07-4.74,4.52,1.42-.62-4.7,4.66.89-1.16-4.59,4.72.34-1.68-4.43,4.74-.2L218.39,106l4.68-.75-2.66-3.92,4.56-1.29-3.1-3.58,4.37-1.82-3.49-3.2,4.13-2.32L223,86.36l3.84-2.77-4.13-2.32,3.49-3.2-4.37-1.82,3.1-3.58-4.56-1.29,2.66-3.92-4.68-.76,2.18-4.2-4.73-.2,1.68-4.44-4.73.35L214,53.62l-4.65.89.62-4.7-4.52,1.42.07-4.74-4.33,1.94-.47-4.72-4.07,2.43-1-4.63-3.76,2.89-1.55-4.48-3.4,3.31L184.79,39l-3,3.67-2.55-4-2.55,4-3-3.67-2.07,4.26-3.4-3.31-1.56,4.48-3.76-2.89-1,4.63-4.07-2.43-.48,4.72L153,46.49l.08,4.74-4.52-1.42.62,4.7-4.66-.89,1.16,4.6L141,57.87l1.69,4.43-4.74.2,2.19,4.21-4.68.75,2.66,3.92-4.56,1.29,3.1,3.59-4.38,1.81,3.5,3.2-4.14,2.32,3.85,2.77-3.85,2.77,4.14,2.32-3.5,3.2,4.38,1.82-3.1,3.58,4.56,1.29-2.66,3.93,4.68.75-2.19,4.2,4.74.2L141,114.86l4.72-.35-1.16,4.59,4.66-.89-.62,4.7,4.52-1.42-.07,4.74,4.32-1.94.48,4.72,4.07-2.43,1,4.63,3.75-2.89,1.56,4.48,3.4-3.31,2.07,4.27Z" style="fill: rgb(38, 50, 56); transform-origin: 179.245px 86.355px;" id="elhoncq07wka7" class="animable"></path><polygon points="218.19 86.36 221.6 83.89 217.93 81.84 221.04 78.99 217.15 77.38 219.9 74.19 215.85 73.04 218.21 69.55 214.05 68.88 216 65.14 211.78 64.96 213.28 61.02 209.08 61.33 210.11 57.24 205.97 58.04 206.52 53.86 202.5 55.12 202.56 50.91 198.72 52.63 198.29 48.44 194.67 50.6 193.76 46.48 190.42 49.05 189.03 45.07 186.01 48.01 184.17 44.22 181.51 47.49 179.25 43.93 176.98 47.49 174.32 44.22 172.48 48.01 169.46 45.07 168.08 49.05 164.73 46.48 163.82 50.6 160.2 48.44 159.78 52.63 155.93 50.91 156 55.13 151.97 53.86 152.53 58.04 148.39 57.25 149.42 61.33 145.22 61.02 146.71 64.96 142.5 65.14 144.44 68.88 140.28 69.55 142.65 73.04 138.59 74.19 141.35 77.38 137.46 78.99 140.57 81.84 136.89 83.89 140.31 86.36 136.89 88.83 140.57 90.89 137.46 93.73 141.35 95.34 138.59 98.53 142.65 99.68 140.28 103.17 144.44 103.84 142.5 107.58 146.71 107.76 145.22 111.7 149.42 111.39 148.39 115.48 152.53 114.68 151.98 118.86 156 117.6 155.93 121.81 159.78 120.09 160.2 124.28 163.82 122.12 164.73 126.24 168.08 123.67 169.46 127.65 172.48 124.71 174.32 128.5 176.98 125.23 179.25 128.79 181.51 125.23 184.17 128.5 186.01 124.71 189.03 127.65 190.42 123.67 193.76 126.24 194.68 122.12 198.3 124.28 198.72 120.09 202.57 121.81 202.5 117.59 206.52 118.86 205.97 114.68 210.11 115.47 209.08 111.39 213.28 111.7 211.79 107.76 216 107.58 214.05 103.84 218.21 103.17 215.85 99.68 219.9 98.53 217.15 95.34 221.04 93.73 217.93 90.89 221.6 88.83 218.19 86.36" style="fill: rgb(255, 255, 255); transform-origin: 179.245px 86.36px;" id="elsxjw0vbs25" class="animable"></polygon><circle cx="179.25" cy="86.36" r="37.4" style="fill: #00FF88; transform-origin: 179.25px 86.36px;" id="elgyo8zunm4ll" class="animable"></circle><path d="M179.25,124.26a37.9,37.9,0,1,1,37.9-37.9A37.94,37.94,0,0,1,179.25,124.26Zm0-74.8a36.9,36.9,0,1,0,36.9,36.9A36.94,36.94,0,0,0,179.25,49.46Z" style="fill: rgb(38, 50, 56); transform-origin: 179.25px 86.36px;" id="el38t6o732aq3" class="animable"></path><g id="el9tkfgarcaq9"><circle cx="179.25" cy="86.36" r="31.59" style="fill: rgb(255, 255, 255); opacity: 0.8; transform-origin: 179.25px 86.36px;" class="animable" id="el3zxcmxr1nvw"></circle></g><circle cx="179.25" cy="86.36" r="20.42" style="fill: rgb(255, 255, 255); transform-origin: 179.25px 86.36px;" id="elx11rt6vmlc" class="animable"></circle></g><defs>     <filter id="active" height="200%">         <feMorphology in="SourceAlpha" result="DILATED" operator="dilate" radius="2"></feMorphology>                <feFlood flood-color="#32DFEC" flood-opacity="1" result="PINK"></feFlood>        <feComposite in="PINK" in2="DILATED" operator="in" result="OUTLINE"></feComposite>        <feMerge>            <feMergeNode in="OUTLINE"></feMergeNode>            <feMergeNode in="SourceGraphic"></feMergeNode>        </feMerge>    </filter>    <filter id="hover" height="200%">        <feMorphology in="SourceAlpha" result="DILATED" operator="dilate" radius="2"></feMorphology>                <feFlood flood-color="#ff0000" flood-opacity="0.5" result="PINK"></feFlood>        <feComposite in="PINK" in2="DILATED" operator="in" result="OUTLINE"></feComposite>        <feMerge>            <feMergeNode in="OUTLINE"></feMergeNode>            <feMergeNode in="SourceGraphic"></feMergeNode>        </feMerge>            <feColorMatrix type="matrix" values="0   0   0   0   0                0   1   0   0   0                0   0   0   0   0                0   0   0   1   0 "></feColorMatrix>    </filter></defs></svg>